<?xml version="1.0" encoding="iso-8859-1"?>
<!-- Generator: Adobe Illustrator 19.0.0, SVG Export Plug-In . SVG Version: 6.00 Build 0)  -->
<svg version="1.1" id="Layer_1" xmlns="http://www.w3.org/2000/svg" xmlns:xlink="http://www.w3.org/1999/xlink" x="0px" y="0px"
	 viewBox="0 0 268.305 268.305" style="enable-background:new 0 0 268.305 268.305;" xml:space="preserve">
<g>
	<g>
		<path style="fill:#FFFFFF;" d="M191.797,148.627l-62.22,62.23c-8.33,8.32-31.22-1.07-51.14-20.99s-29.31-42.81-20.99-51.14
			l62.23-62.22c-8.33,8.32,1.07,31.22,20.99,51.13C160.577,147.558,183.477,156.957,191.797,148.627z"/>
		<path style="fill:#FF7876;" d="M191.797,148.627c-8.32,8.33-31.22-1.07-51.13-20.99c-19.92-19.91-29.32-42.81-20.99-51.13
			c8.32-8.33,31.21,1.07,51.13,20.99S200.127,140.308,191.797,148.627z"/>
	</g>
	<g>
		<path style="fill:#FFFFFF;" d="M258.487,63.197l-46.05,46.06c-6.17,6.16-23.11-0.79-37.85-15.54
			c-14.75-14.74-21.7-31.68-15.54-37.85l46.06-46.05c-6.16,6.16,0.79,23.1,15.53,37.85
			C235.387,62.407,252.327,69.357,258.487,63.197z"/>
		<path style="fill:#FF7876;" d="M258.487,63.197c-6.16,6.16-23.1-0.79-37.85-15.53c-14.74-14.75-21.69-31.69-15.53-37.85
			s23.11,0.79,37.85,15.53C257.697,40.087,264.647,57.037,258.487,63.197z"/>
	</g>
	<g>
		<path style="fill:#414042;" d="M95.042,120.701l-22.156,22.156c-2.929,2.929-2.929,7.678,0,10.607s7.678,2.929,10.606,0
			l22.156-22.156c2.929-2.929,2.929-7.678,0-10.606C102.72,117.772,97.971,117.772,95.042,120.701z"/>
		<path style="fill:#414042;" d="M253.356,25.555l10.676-10.676c2.929-2.929,2.929-7.678,0-10.606
			c-2.929-2.929-7.678-2.929-10.606,0L242.75,14.949C230.772,4.696,210.747-6.427,199.804,4.513l0,0l-46.065,46.055
			c-5.489,5.498-5.483,13.82-2.07,22.759c-11.78-6.579-27.823-11.61-37.292-2.127c-0.004,0.004-0.007,0.008-0.011,0.011
			l-62.225,62.215c-13.912,13.931,2.239,41.002,15.846,56.284L2.197,255.5c-2.929,2.929-2.929,7.678,0,10.606
			c2.929,2.929,7.678,2.929,10.606,0l65.791-65.79c17.425,15.515,43.19,28.926,56.288,15.842l62.213-62.222
			c0.003-0.003,0.007-0.007,0.01-0.01c0.003-0.003,0.005-0.006,0.008-0.009c9.494-9.506,4.409-25.566-2.131-37.277
			c7.92,3.023,16.79,3.878,22.76-2.082l46.05-46.06l0,0C274.768,57.521,263.533,37.445,253.356,25.555z M232.111,25.587
			l-1.787,1.787c-2.929,2.929-2.929,7.678,0,10.607s7.678,2.929,10.606,0l1.787-1.787c8.889,10.691,11.172,19.434,10.431,21.658
			c-6.496,2.216-21.843-10.126-27.207-15.486c-8.081-8.086-17.336-21.802-15.49-27.21C212.677,14.414,221.42,16.698,232.111,25.587z
			 M160.021,97.677l-9.589,9.589c-2.929,2.929-2.929,7.678,0,10.606c2.929,2.929,7.678,2.929,10.607,0l9.589-9.589
			c15.906,18.182,18.443,32.467,15.869,35.038c-0.002,0.002-0.004,0.004-0.006,0.006c-3.088,3.098-20.971-1.434-40.522-20.994
			c-19.308-19.3-24.176-37.338-20.985-40.525C127.61,79.176,142.017,81.926,160.021,97.677z M124.276,205.551
			c-2.922,2.924-20.244-0.694-40.537-20.986c-20.292-20.292-23.908-37.612-20.99-40.533l48.185-48.177
			c4.145,13.438,14.436,27.098,24.428,37.085c10.018,10.023,23.608,20.247,37.088,24.43L124.276,205.551z M207.216,103.871
			c-2.335,1.027-13.989-2.111-27.328-15.459c-13.344-13.335-16.479-24.993-15.455-27.324l33.439-33.432
			c6.733,17.181,25.583,36.04,42.776,42.776L207.216,103.871z"/>
		<path style="fill:#414042;" d="M190.445,46.098l-16.399,16.399c-2.929,2.929-2.929,7.677,0,10.606
			c2.928,2.929,7.677,2.929,10.606,0l16.4-16.399c2.929-2.929,2.929-7.677,0-10.607C198.124,43.169,193.375,43.169,190.445,46.098z"
			/>
	</g>
</g>
<g>
</g>
<g>
</g>
<g>
</g>
<g>
</g>
<g>
</g>
<g>
</g>
<g>
</g>
<g>
</g>
<g>
</g>
<g>
</g>
<g>
</g>
<g>
</g>
<g>
</g>
<g>
</g>
<g>
</g>
</svg>
