<?xml version="1.0" encoding="iso-8859-1"?>
<!-- Generator: Adobe Illustrator 18.1.1, SVG Export Plug-In . SVG Version: 6.00 Build 0)  -->
<svg xmlns="http://www.w3.org/2000/svg" xmlns:xlink="http://www.w3.org/1999/xlink" version="1.1" id="Capa_1" x="0px" y="0px" viewBox="0 0 32 32" style="enable-background:new 0 0 32 32;" xml:space="preserve" width="512px" height="512px">
<g id="news">
	<path d="M27.841,30.565H4.159C1.866,30.565,0,28.699,0,26.406V11.623c0-1.343,1.093-2.436,2.436-2.436l2.44,0.002   c0.001,0,0.002,0,0.004,0l0-5.318c0-1.343,1.093-2.436,2.436-2.436l22.249,0.002C30.908,1.438,32,2.531,32,3.873v22.533   C32,28.699,30.134,30.565,27.841,30.565z M2.436,11.187c-0.157,0-0.261,0.08-0.309,0.128C2.08,11.363,2,11.466,2,11.623v14.783   c0,1.19,0.968,2.159,2.159,2.159h23.683c1.19,0,2.159-0.968,2.159-2.159V3.873c0-0.24-0.196-0.436-0.436-0.436L7.316,3.435   c-0.24,0-0.436,0.196-0.436,0.436l0.001,20.313c0,0.829-0.674,1.503-1.503,1.503c-0.83-0.003-1.502-0.677-1.502-1.503V11.188   L2.436,11.187z" fill="#FFFFFF"/>
	<path d="M26.374,9.254C26.374,9.254,26.374,9.254,26.374,9.254L13.573,9.25c-0.552,0-1-0.448-1-1c0-0.552,0.448-1,1-1c0,0,0,0,0,0   l12.8,0.004c0.552,0,1,0.448,1,1C27.374,8.806,26.926,9.254,26.374,9.254z" fill="#FFFFFF"/>
	<path d="M26.372,14.074H10.375c-0.552,0-1-0.448-1-1s0.448-1,1-1h15.997c0.552,0,1,0.448,1,1S26.924,14.074,26.372,14.074z" fill="#FFFFFF"/>
	<path d="M26.372,18.895H10.374c-0.552,0-1-0.448-1-1s0.448-1,1-1h15.999c0.552,0,1,0.448,1,1S26.924,18.895,26.372,18.895z" fill="#FFFFFF"/>
	<path d="M26.374,23.716h-16c-0.552,0-1-0.448-1-1s0.448-1,1-1h16c0.552,0,1,0.448,1,1S26.926,23.716,26.374,23.716z" fill="#FFFFFF"/>
</g>
<g>
</g>
<g>
</g>
<g>
</g>
<g>
</g>
<g>
</g>
<g>
</g>
<g>
</g>
<g>
</g>
<g>
</g>
<g>
</g>
<g>
</g>
<g>
</g>
<g>
</g>
<g>
</g>
<g>
</g>
</svg>
